<svg width="120" height="40" viewBox="0 0 120 40" fill="none" xmlns="http://www.w3.org/2000/svg">
  <path d="M20.4 31.2C18.4 31.2 16.6 30.8 15 30C13.4 29.2 12.1 28 11.1 26.4C10.1 24.8 9.6 22.9 9.6 20.7C9.6 18.5 10.1 16.6 11.1 15C12.1 13.4 13.4 12.2 15 11.4C16.6 10.6 18.4 10.2 20.4 10.2C22.4 10.2 24.2 10.6 25.8 11.4C27.4 12.2 28.7 13.4 29.7 15C30.7 16.6 31.2 18.5 31.2 20.7C31.2 22.9 30.7 24.8 29.7 26.4C28.7 28 27.4 29.2 25.8 30C24.2 30.8 22.4 31.2 20.4 31.2Z" fill="#7C3AED"/>
  <path d="M46.8 31.2C44.8 31.2 43 30.8 41.4 30C39.8 29.2 38.5 28 37.5 26.4C36.5 24.8 36 22.9 36 20.7C36 18.5 36.5 16.6 37.5 15C38.5 13.4 39.8 12.2 41.4 11.4C43 10.6 44.8 10.2 46.8 10.2C48.8 10.2 50.6 10.6 52.2 11.4C53.8 12.2 55.1 13.4 56.1 15C57.1 16.6 57.6 18.5 57.6 20.7C57.6 22.9 57.1 24.8 56.1 26.4C55.1 28 53.8 29.2 52.2 30C50.6 30.8 48.8 31.2 46.8 31.2Z" fill="#7C3AED"/>
  <path d="M73.2 31.2C71.2 31.2 69.4 30.8 67.8 30C66.2 29.2 64.9 28 63.9 26.4C62.9 24.8 62.4 22.9 62.4 20.7C62.4 18.5 62.9 16.6 63.9 15C64.9 13.4 66.2 12.2 67.8 11.4C69.4 10.6 71.2 10.2 73.2 10.2C75.2 10.2 77 10.6 78.6 11.4C80.2 12.2 81.5 13.4 82.5 15C83.5 16.6 84 18.5 84 20.7C84 22.9 83.5 24.8 82.5 26.4C81.5 28 80.2 29.2 78.6 30C77 30.8 75.2 31.2 73.2 31.2Z" fill="#7C3AED"/>
  <path d="M99.6 31.2C97.6 31.2 95.8 30.8 94.2 30C92.6 29.2 91.3 28 90.3 26.4C89.3 24.8 88.8 22.9 88.8 20.7C88.8 18.5 89.3 16.6 90.3 15C91.3 13.4 92.6 12.2 94.2 11.4C95.8 10.6 97.6 10.2 99.6 10.2C101.6 10.2 103.4 10.6 105 11.4C106.6 12.2 107.9 13.4 108.9 15C109.9 16.6 110.4 18.5 110.4 20.7C110.4 22.9 109.9 24.8 108.9 26.4C107.9 28 106.6 29.2 105 30C103.4 30.8 101.6 31.2 99.6 31.2Z" fill="#7C3AED"/>
</svg> 